<?xml version="1.0" encoding="UTF-8" standalone="no"?>
<!-- Created with Inkscape (http://www.inkscape.org/) -->

<svg
   width="1536"
   height="512"
   viewBox="0 0 1536 512"
   version="1.1"
   id="svg1"
   inkscape:version="1.4.3 (0d15f75042, 2025-12-25)"
   sodipodi:docname="darklylogotextdark.svg"
   xmlns:inkscape="http://www.inkscape.org/namespaces/inkscape"
   xmlns:sodipodi="http://sodipodi.sourceforge.net/DTD/sodipodi-0.dtd"
   xmlns="http://www.w3.org/2000/svg"
   xmlns:svg="http://www.w3.org/2000/svg">
  <sodipodi:namedview
     id="namedview1"
     pagecolor="#222222"
     bordercolor="#000000"
     borderopacity="0.25"
     inkscape:showpageshadow="2"
     inkscape:pageopacity="0.0"
     inkscape:pagecheckerboard="0"
     inkscape:deskcolor="#d1d1d1"
     inkscape:document-units="px"
     showguides="true"
     inkscape:zoom="0.56347656"
     inkscape:cx="685.92027"
     inkscape:cy="440.12478"
     inkscape:window-width="2560"
     inkscape:window-height="1362"
     inkscape:window-x="0"
     inkscape:window-y="0"
     inkscape:window-maximized="1"
     inkscape:current-layer="layer1" />
  <defs
     id="defs1" />
  <g
     inkscape:label="Layer 1"
     inkscape:groupmode="layer"
     id="layer1"
     transform="translate(160.27119)">
    <path
       id="rect2"
       style="fill:#ffffff;stroke-width:0.569774"
       d="M 95.728809,0 V 320.54236 L 256,160.27118 Z" />
    <path
       id="rect2-9"
       style="fill:#ffffff;stroke-width:0.569774"
       d="M 416.27117,320.54236 V 160.27118 H 256 Z" />
    <path
       id="path6"
       style="fill:#ffffff;stroke-width:0.481286"
       d="m 287.18463,320.54233 -95.72792,95.72884 h 95.72792 z m 0,191.45767 -95.72792,-95.72883 h 95.72792 z" />
    <path
       id="path7"
       style="fill:#ffffff;stroke-width:0.481286"
       d="M 191.45671,416.27117 95.728809,320.54233 h 95.727901 z" />
    <path
       id="path8"
       style="fill:#ffffff;stroke-width:0.481286"
       d="M 191.45671,512 95.728809,416.27117 h 95.727901 z" />
    <rect
       style="fill:#1ba1d5;fill-opacity:1;stroke-width:0.477437"
       id="rect8"
       width="33.358643"
       height="191.45734"
       x="287.18463"
       y="320.54233" />
    <path
       id="rect9"
       style="fill:#ffffff"
       d="m 320.54291,416.271 h 95.72825 v 95.72902 h -95.72825 z m 95.72826,-95.72885 -95.72791,95.72885 h 95.72791 z" />
    <path
       d="m 636.90938,284.55924 q 0,39.43972 -21.572,59.48643 -21.3541,19.82881 -59.70433,19.82881 h -43.3619 V 208.29459 h 47.93778 q 23.53309,0 40.74712,8.71596 17.21402,8.71596 26.58367,25.71209 9.36966,16.77822 9.36966,41.8366 z m -20.7004,0.6537 q 0,-31.15956 -15.47083,-45.54089 -15.25293,-14.59923 -43.3619,-14.59923 h -25.49419 v 122.02344 h 21.13621 q 63.19071,0 63.19071,-61.88332 z m 96.74706,-40.09341 q 21.3541,0 31.59535,9.36965 10.24126,9.36966 10.24126,29.85217 v 79.53313 h -13.94554 l -3.70428,-16.56032 h -0.8716 q -7.62646,9.58755 -16.12452,14.16343 -8.28017,4.57588 -23.0973,4.57588 -15.90663,0 -26.36578,-8.28016 -10.45915,-8.49806 -10.45915,-26.36578 0,-17.43192 13.72764,-26.80158 13.72763,-9.58755 42.2724,-10.45915 l 19.82881,-0.6537 v -6.97276 q 0,-14.59924 -6.31907,-20.26461 -6.31907,-5.66538 -17.86772,-5.66538 -9.15175,0 -17.43192,2.83269 -8.28016,2.61479 -15.47083,6.10117 l -5.88327,-14.38133 q 7.62647,-4.14008 18.08562,-6.97277 10.45915,-3.05058 21.7899,-3.05058 z m 5.66537,62.31911 q -21.7899,0.8716 -30.28796,6.97277 -8.28016,6.10117 -8.28016,17.21402 0,9.80545 5.88327,14.38133 6.10117,4.57588 15.47083,4.57588 14.81713,0 24.62259,-8.06226 9.80545,-8.28016 9.80545,-25.27629 v -10.45915 z m 126.81738,-62.53701 q 3.26849,0 6.97277,0.43579 3.92218,0.2179 6.75487,0.8716 l -2.39689,17.64982 q -2.83269,-0.6537 -6.31907,-1.0895 -3.26849,-0.43579 -6.31907,-0.43579 -8.93386,0 -16.77822,5.01167 -7.84437,4.79378 -12.63815,13.72764 -4.57588,8.71596 -4.57588,20.48251 v 62.31911 H 790.96404 V 247.08062 h 15.68873 l 2.17899,21.3541 h 0.8716 q 5.66537,-9.58756 14.59923,-16.56033 8.93386,-6.97276 21.1362,-6.97276 z m 54.47477,39.87551 q 0,3.48639 -0.43579,9.15176 -0.2179,5.66538 -0.4358,9.80546 h 0.87159 q 1.3074,-1.7432 3.92219,-5.01168 2.61478,-3.26849 5.22957,-6.53697 2.83269,-3.48638 4.79378,-5.66537 l 37.26073,-39.43972 h 22.4436 l -47.28409,49.89887 50.55257,66.89499 h -23.09729 l -40.52922,-54.47475 -13.29184,11.54865 v 42.9261 H 880.95635 V 198.27124 h 18.95721 z m 116.57604,79.09734 H 997.31451 V 198.27124 h 19.17509 z m 18.7392,-116.79386 h 20.4825 l 25.2763,66.45919 q 3.2685,8.71596 5.8833,16.77822 2.6148,7.84437 3.9222,15.03504 h 0.8716 q 1.3074,-5.44748 4.14,-14.16344 2.8327,-8.93386 5.8833,-17.86772 l 23.751,-66.24129 h 20.7004 l -50.3347,132.91839 q -6.1011,16.56032 -15.9066,26.36578 -9.5875,9.80545 -26.5837,9.80545 -5.2295,0 -9.1517,-0.6537 -3.9222,-0.43579 -6.7549,-1.08949 v -15.25293 q 2.3969,0.4358 5.6654,0.8716 3.4864,0.43579 7.1907,0.43579 10.0233,0 16.1245,-5.66537 6.3191,-5.66537 9.8054,-15.03503 l 6.1012,-15.47083 z"
       id="text9"
       style="font-size:217.899px;fill:#ffffff;stroke-width:18.1582"
       aria-label="Darkly" />
  </g>
</svg>
