<?xml version="1.0" encoding="UTF-8" standalone="no"?>
<!-- Created with Inkscape (http://www.inkscape.org/) -->

<svg
   width="1279"
   height="512"
   viewBox="0 0 1279 512"
   version="1.1"
   id="svg1"
   inkscape:version="1.4.3 (0d15f75042, 2025-12-25)"
   sodipodi:docname="darklylogotext.svg"
   xmlns:inkscape="http://www.inkscape.org/namespaces/inkscape"
   xmlns:sodipodi="http://sodipodi.sourceforge.net/DTD/sodipodi-0.dtd"
   xmlns="http://www.w3.org/2000/svg"
   xmlns:svg="http://www.w3.org/2000/svg">
  <sodipodi:namedview
     id="namedview1"
     pagecolor="#ffffff"
     bordercolor="#000000"
     borderopacity="0.25"
     inkscape:showpageshadow="2"
     inkscape:pageopacity="0.0"
     inkscape:pagecheckerboard="0"
     inkscape:deskcolor="#d1d1d1"
     inkscape:document-units="px"
     showguides="true"
     inkscape:zoom="0.099609525"
     inkscape:cx="-3749.6414"
     inkscape:cy="1957.6441"
     inkscape:window-width="2560"
     inkscape:window-height="1362"
     inkscape:window-x="0"
     inkscape:window-y="0"
     inkscape:window-maximized="1"
     inkscape:current-layer="layer1" />
  <defs
     id="defs1">
    <style
       id="style1">
  .followScheme{color:#222}
  @media (prefers-color-scheme: dark){.followScheme{color:#fff}}
  </style>
  </defs>
  <g
     inkscape:label="Layer 1"
     inkscape:groupmode="layer"
     id="layer1"
     transform="translate(-95.728809)">
    <path
       id="rect2"
       style="fill:currentColor;stroke-width:0.829401"
       class="followScheme"
       d="M 95.728809,4.3670006e-4 V 233.30234 L 329.03069,4.3670006e-4 Z" />
    <path
       id="rect2-9"
       class="followScheme"
       style="fill:currentColor;stroke-width:0.829401"
       d="M 562.3317,233.30145 V 0 H 329.03027 Z" />
    <path
       id="path6"
       class="followScheme"
       style="fill:currentColor;stroke-width:0.700592"
       d="M 374.4247,233.3014 235.07674,372.6507 H 374.4247 Z m 0,278.69859 L 235.07674,372.6507 H 374.4247 Z" />
    <path
       id="path7"
       class="followScheme"
       style="fill:currentColor;stroke-width:0.700592"
       d="M 235.07674,372.6507 95.728809,233.3014 H 235.07674 Z" />
    <path
       id="path8"
       class="followScheme"
       style="fill:currentColor;stroke-width:0.700592"
       d="M 235.07674,511.99999 95.728809,372.6507 H 235.07674 Z" />
    <rect
       style="fill:#1ba1d5;fill-opacity:1;stroke-width:0.694989"
       id="rect8"
       width="48.559071"
       height="278.69809"
       x="374.42471"
       y="233.30141" />
    <path
       id="rect9"
       class="followScheme"
       style="fill:currentColor;stroke-width:1.45567"
       d="M 422.98325,372.65046 H 562.33169 V 512.00002 H 422.98325 Z M 562.3317,233.30114 422.98376,372.65046 H 562.3317 Z" />
    <path
       d="m 865.42921,255.3463 q 0,39.43972 -21.572,59.48643 -21.3541,19.82881 -59.70433,19.82881 h -43.3619 V 179.08165 h 47.93778 q 23.53309,0 40.74712,8.71596 17.21402,8.71596 26.58367,25.71209 9.36966,16.77822 9.36966,41.8366 z M 844.72881,256 q 0,-31.15956 -15.47083,-45.54089 -15.25293,-14.59923 -43.3619,-14.59923 h -25.49419 v 122.02344 h 21.13621 q 63.19071,0 63.19071,-61.88332 z m 96.74706,-40.09341 q 21.3541,0 31.59535,9.36965 10.24126,9.36966 10.24126,29.85217 v 79.53313 h -13.94554 l -3.70428,-16.56032 h -0.8716 q -7.62646,9.58755 -16.12452,14.16343 -8.28017,4.57588 -23.0973,4.57588 -15.90663,0 -26.36578,-8.28016 -10.45915,-8.49806 -10.45915,-26.36578 0,-17.43192 13.72764,-26.80158 13.72763,-9.58755 42.2724,-10.45915 l 19.82881,-0.6537 v -6.97276 q 0,-14.59924 -6.31907,-20.26461 -6.31907,-5.66538 -17.86772,-5.66538 -9.15175,0 -17.43192,2.83269 -8.28016,2.61479 -15.47083,6.10117 l -5.88327,-14.38133 q 7.62647,-4.14008 18.08562,-6.97277 10.45915,-3.05058 21.7899,-3.05058 z m 5.66537,62.31911 q -21.7899,0.8716 -30.28796,6.97277 -8.28016,6.10117 -8.28016,17.21402 0,9.80545 5.88327,14.38133 6.10117,4.57588 15.47083,4.57588 14.81713,0 24.62259,-8.06226 9.80545,-8.28016 9.80545,-25.27629 V 277.572 Z m 126.81736,-62.53701 q 3.2685,0 6.9728,0.43579 3.9221,0.2179 6.7548,0.8716 l -2.3969,17.64982 q -2.8326,-0.6537 -6.319,-1.0895 -3.2685,-0.43579 -6.3191,-0.43579 -8.9339,0 -16.7782,5.01167 -7.8444,4.79378 -12.6382,13.72764 -4.5758,8.71596 -4.5758,20.48251 v 62.31911 h -19.1752 V 217.86768 h 15.6888 l 2.179,21.3541 h 0.8716 q 5.6653,-9.58756 14.5992,-16.56033 8.9338,-6.97276 21.1362,-6.97276 z m 54.4748,39.87551 q 0,3.48639 -0.4358,9.15176 -0.2179,5.66538 -0.4358,9.80546 h 0.8716 q 1.3074,-1.7432 3.9222,-5.01168 2.6147,-3.26849 5.2295,-6.53697 2.8327,-3.48638 4.7938,-5.66537 l 37.2607,-39.43972 h 22.4436 l -47.2841,49.89887 50.5526,66.89499 h -23.0973 l -40.5292,-54.47475 -13.2918,11.54865 v 42.9261 h -18.9572 V 169.0583 h 18.9572 z m 116.5761,79.09734 h -19.1751 V 169.0583 h 19.1751 z m 18.7392,-116.79386 h 20.4825 l 25.2763,66.45919 q 3.2685,8.71596 5.8833,16.77822 2.6148,7.84437 3.9222,15.03504 h 0.8716 q 1.3073,-5.44748 4.14,-14.16344 2.8327,-8.93386 5.8833,-17.86772 l 23.751,-66.24129 h 20.7004 l -50.3347,132.91839 q -6.1011,16.56032 -15.9066,26.36578 -9.5875,9.80545 -26.5837,9.80545 -5.2295,0 -9.1517,-0.6537 -3.9222,-0.43579 -6.7549,-1.08949 v -15.25293 q 2.3969,0.4358 5.6654,0.8716 3.4864,0.43579 7.1907,0.43579 10.0233,0 16.1245,-5.66537 6.3191,-5.66537 9.8054,-15.03503 l 6.1012,-15.47083 z"
       id="text9"
       class="followScheme"
       style="font-size:217.899px;fill:currentColor;stroke-width:18.1582"
       aria-label="Darkly" />
  </g>
</svg>
